<?xml version="1.0" encoding="UTF-8" standalone="no"?><!DOCTYPE svg PUBLIC "-//W3C//DTD SVG 1.1//EN" "http://www.w3.org/Graphics/SVG/1.1/DTD/svg11.dtd"><svg width="100%" height="100%" viewBox="0 0 2860 720" version="1.1" xmlns="http://www.w3.org/2000/svg" xmlns:xlink="http://www.w3.org/1999/xlink" xml:space="preserve" xmlns:serif="http://www.serif.com/" style="fill-rule:evenodd;clip-rule:evenodd;stroke-linejoin:round;stroke-miterlimit:2;"><rect id="Artboard1" x="0" y="0" width="2859.17" height="719.682" style="fill:none;"/><clipPath id="_clip1"><rect x="0" y="0" width="2859.17" height="719.682"/></clipPath><g clip-path="url(#_clip1)"><g><path id="path-2" d="M7.255,142.559c-0,0 -57.897,412.198 301.772,579.782c-0,0 310.729,-100.75 302.221,-573.505c0,0 -203.191,-9.379 -302.669,-146.177c0,-0 -114.712,150.785 -301.324,139.9Z" style="fill-rule:nonzero;"/><circle id="circle-2" cx="401.739" cy="362.496" r="94.121" style="fill:#fff;"/><circle id="circle" cx="456.461" cy="307.774" r="39.398"/><path id="path" d="M539.146,364.593c0,-0 61.452,-63.762 49.093,-184.42c0,-0 -433.166,-113.741 -511.018,326.627c-0.11,0.622 -0.532,1.488 -0.213,2.053c3.857,6.839 9.19,16.789 15.323,25.845c0.01,0.015 0.54,-1.238 0.826,-1.949c51.13,-127.093 180.348,-356.74 433.119,-302.34c0,-0 27.303,-7.361 12.87,134.184Z" style="fill:#fff;fill-rule:nonzero;"/></g><g><path d="M760.714,213.183l115.007,0c20.526,0 39.166,3.321 55.919,9.962c16.753,6.64 31.091,16.526 43.015,29.657c11.923,13.131 21.13,29.582 27.619,49.353c6.49,19.772 9.735,42.789 9.735,69.05c0,26.262 -3.245,49.278 -9.735,69.05c-6.489,19.771 -15.696,36.222 -27.619,49.353c-11.924,13.131 -26.262,23.017 -43.015,29.657c-16.753,6.641 -35.393,9.962 -55.919,9.962l-115.007,-0l-0,-316.044Zm115.007,263.068c22.338,-0 40.072,-6.565 53.202,-19.696c13.131,-13.131 19.696,-33.28 19.696,-60.447l0,-49.806c0,-27.167 -6.565,-47.316 -19.696,-60.447c-13.13,-13.131 -30.864,-19.696 -53.202,-19.696l-55.239,0l-0,210.092l55.239,-0Z" style="fill-rule:nonzero;"/><path d="M1164.6,534.66c-17.508,0 -33.129,-2.943 -46.864,-8.829c-13.734,-5.886 -25.355,-14.187 -34.864,-24.903c-9.508,-10.716 -16.828,-23.696 -21.96,-38.94c-5.132,-15.243 -7.697,-32.374 -7.697,-51.391c-0,-18.715 2.49,-35.619 7.471,-50.712c4.98,-15.092 12.149,-27.997 21.507,-38.713c9.357,-10.716 20.828,-19.017 34.411,-24.903c13.584,-5.886 28.979,-8.829 46.184,-8.829c18.414,-0 34.412,3.169 47.996,9.508c13.583,6.339 24.752,14.942 33.506,25.809c8.754,10.867 15.319,23.469 19.696,37.808c4.377,14.338 6.565,29.657 6.565,45.957l0,19.017l-157.116,0l-0,5.844c-0,17.083 4.83,30.794 14.489,41.133c9.659,10.338 23.998,15.507 43.015,15.507c14.489,0 26.337,-2.996 35.543,-8.988c9.207,-5.992 17.432,-13.634 24.677,-22.926l31.242,34.964c-9.659,13.621 -22.866,24.291 -39.619,32.009c-16.753,7.719 -36.147,11.578 -58.182,11.578Zm-0.906,-203.753c-15.395,0 -27.62,5.132 -36.675,15.395c-9.056,10.263 -13.584,23.545 -13.584,39.845l-0,3.622l96.896,0l-0,-4.075c-0,-16.3 -4,-29.506 -11.999,-39.619c-7.999,-10.112 -19.545,-15.168 -34.638,-15.168Z" style="fill-rule:nonzero;"/><path d="M1468.42,489.835l-2.264,-0c-4.226,13.583 -12.225,24.45 -23.998,32.6c-11.772,8.15 -25.506,12.225 -41.203,12.225c-29.884,0 -52.749,-10.716 -68.597,-32.148c-15.847,-21.431 -23.771,-52.07 -23.771,-91.915c0,-39.543 7.924,-69.955 23.771,-91.236c15.848,-21.281 38.713,-31.921 68.597,-31.921c15.697,-0 29.431,4 41.203,11.999c11.773,7.999 19.772,18.79 23.998,32.374l2.264,-0l-0,-137.647l57.956,0l0,335.061l-57.956,-0l-0,-39.392Zm-48.901,-3.17c13.886,0 25.507,-3.32 34.865,-9.961c9.357,-6.641 14.036,-16.15 14.036,-28.526l-0,-75.162c-0,-11.47 -4.679,-20.677 -14.036,-27.62c-9.358,-6.942 -20.979,-10.414 -34.865,-10.414c-15.093,0 -27.242,5.056 -36.449,15.169c-9.207,10.112 -13.81,23.62 -13.81,40.524l0,40.75c0,16.904 4.603,30.337 13.81,40.298c9.207,9.961 21.356,14.942 36.449,14.942Z" style="fill-rule:nonzero;"/><path d="M1622.36,258.462c-12.075,-0 -20.753,-2.717 -26.035,-8.15c-5.283,-5.434 -7.924,-12.377 -7.924,-20.828l-0,-9.056c-0,-8.452 2.641,-15.395 7.924,-20.828c5.282,-5.434 13.96,-8.15 26.035,-8.15c11.772,-0 20.375,2.716 25.808,8.15c5.434,5.433 8.15,12.376 8.15,20.828l0,9.056c0,8.451 -2.716,15.394 -8.15,20.828c-5.433,5.433 -14.036,8.15 -25.808,8.15Zm-28.979,34.411l57.957,0l-0,236.354l-57.957,-0l0,-236.354Z" style="fill-rule:nonzero;"/><path d="M1931.61,549.149c0,12.376 -2.188,23.319 -6.565,32.827c-4.377,9.509 -11.546,17.432 -21.507,23.771c-9.962,6.339 -22.79,11.169 -38.487,14.489c-15.697,3.321 -34.864,4.981 -57.504,4.981c-19.922,0 -36.826,-1.283 -50.711,-3.849c-13.886,-2.565 -25.281,-6.188 -34.186,-10.866c-8.904,-4.679 -15.319,-10.49 -19.243,-17.433c-3.924,-6.942 -5.886,-14.791 -5.886,-23.544c-0,-13.282 3.698,-23.621 11.093,-31.016c7.396,-7.396 17.734,-12.15 31.016,-14.263l-0,-4.981c-9.66,-2.419 -17.131,-7.18 -22.413,-14.283c-5.283,-7.103 -7.924,-15.492 -7.924,-25.165c0,-6.047 1.208,-11.413 3.622,-16.099c2.415,-4.686 5.66,-8.691 9.735,-12.016c4.075,-3.326 8.679,-6.121 13.81,-8.388c5.132,-2.266 10.565,-4.005 16.3,-5.217l0,-1.811c-14.489,-6.636 -25.28,-15.836 -32.374,-27.599c-7.093,-11.763 -10.64,-25.486 -10.64,-41.168c-0,-24.13 8.301,-43.509 24.903,-58.137c16.602,-14.628 40.902,-21.942 72.898,-21.942c7.245,-0 14.414,0.453 21.508,1.358c7.093,0.906 13.659,2.415 19.696,4.528l-0,-7.697c-0,-22.941 11.168,-34.412 33.506,-34.412l36.675,0l0,44.373l-50.259,0l0,6.339c12.376,6.943 21.583,15.998 27.62,27.167c6.037,11.169 9.056,23.998 9.056,38.487c-0,23.846 -8.226,43.014 -24.677,57.503c-16.451,14.489 -40.826,21.734 -73.125,21.734c-13.885,0 -25.959,-1.358 -36.222,-4.075c-4.528,2.113 -8.452,4.905 -11.773,8.376c-3.32,3.472 -4.98,7.773 -4.98,12.905c-0,11.772 10.263,17.658 30.789,17.658l63.39,0c28.978,0 50.032,5.962 63.163,17.885c13.131,11.924 19.696,28.45 19.696,49.58Zm-54.334,6.792c0,-7.546 -3.018,-13.433 -9.055,-17.659c-6.038,-4.226 -16.452,-6.339 -31.243,-6.339l-80.595,0c-8.15,6.038 -12.225,14.188 -12.225,24.451c-0,9.055 3.773,16.149 11.319,21.281c7.547,5.131 20.376,7.697 38.487,7.697l28.978,0c19.017,0 32.827,-2.415 41.43,-7.245c8.603,-4.829 12.904,-12.225 12.904,-22.186Zm-69.729,-148.966c28.375,-0 42.562,-12.006 42.562,-36.018l0,-7.654c0,-24.012 -14.187,-36.018 -42.562,-36.018c-28.374,-0 -42.561,12.006 -42.561,36.018l-0,7.654c-0,24.012 14.187,36.018 42.561,36.018Z" style="fill-rule:nonzero;"/><path d="M2104.58,489.835l-2.264,-0c-2.113,6.037 -4.905,11.696 -8.376,16.979c-3.472,5.282 -7.849,10.037 -13.131,14.263c-5.283,4.226 -11.622,7.546 -19.017,9.961c-7.396,2.415 -15.923,3.622 -25.582,3.622c-24.451,0 -43.166,-7.999 -56.146,-23.997c-12.98,-15.999 -19.469,-38.789 -19.469,-68.371l-0,-149.419l57.956,0l-0,143.533c-0,16.3 3.169,28.752 9.508,37.355c6.339,8.603 16.452,12.904 30.337,12.904c5.735,0 11.395,-0.755 16.979,-2.264c5.585,-1.509 10.49,-3.849 14.716,-7.018c4.226,-3.17 7.697,-7.094 10.414,-11.772c2.717,-4.679 4.075,-10.188 4.075,-16.527l-0,-156.211l57.956,0l0,236.354l-57.956,-0l-0,-39.392Z" style="fill-rule:nonzero;"/><path d="M2403.42,529.227c-12.678,-0 -22.715,-3.698 -30.111,-11.093c-7.395,-7.396 -11.998,-17.282 -13.809,-29.658l-2.717,0c-3.924,15.395 -11.923,26.941 -23.998,34.638c-12.074,7.697 -27.016,11.546 -44.825,11.546c-24.149,0 -42.713,-6.319 -55.693,-18.957c-12.98,-12.638 -19.47,-29.488 -19.47,-50.552c0,-24.37 8.754,-42.498 26.262,-54.384c17.508,-11.886 42.411,-17.828 74.709,-17.828l40.298,-0l0,-17.206c0,-13.282 -3.471,-23.545 -10.414,-30.789c-6.943,-7.245 -18.111,-10.867 -33.506,-10.867c-13.583,-0 -24.526,2.943 -32.827,8.829c-8.301,5.886 -15.319,12.904 -21.054,21.054l-34.412,-30.973c8.754,-13.664 20.375,-24.671 34.864,-33.021c14.49,-8.351 33.657,-12.526 57.504,-12.526c31.997,-0 56.296,7.228 72.898,21.684c16.602,14.456 24.904,35.235 24.904,62.336l-0,111.13l23.544,-0l0,46.637l-32.147,-0Zm-95.991,-36.676c12.98,0 23.998,-2.847 33.054,-8.543c9.055,-5.695 13.583,-14.089 13.583,-25.182l0,-31.023l-37.128,0c-30.186,0 -45.279,9.593 -45.279,28.78l0,7.641c0,9.593 3.094,16.713 9.282,21.359c6.188,4.645 15.018,6.968 26.488,6.968Z" style="fill-rule:nonzero;"/><path d="M2482.65,529.227l-0,-236.354l57.956,0l0,48.901l2.264,0c1.509,-6.339 3.849,-12.452 7.018,-18.338c3.17,-5.886 7.32,-11.093 12.452,-15.621c5.131,-4.528 11.244,-8.15 18.338,-10.867c7.093,-2.716 15.319,-4.075 24.676,-4.075l12.678,0l0,54.787l-18.111,0c-19.621,0 -34.412,2.868 -44.373,8.603c-9.961,5.735 -14.942,15.093 -14.942,28.073l0,144.891l-57.956,-0Z" style="fill-rule:nonzero;"/><path d="M2805.03,489.835l-2.264,-0c-4.226,13.583 -12.225,24.45 -23.997,32.6c-11.773,8.15 -25.507,12.225 -41.204,12.225c-29.883,0 -52.749,-10.716 -68.596,-32.148c-15.848,-21.431 -23.772,-52.07 -23.772,-91.915c0,-39.543 7.924,-69.955 23.772,-91.236c15.847,-21.281 38.713,-31.921 68.596,-31.921c15.697,-0 29.431,4 41.204,11.999c11.772,7.999 19.771,18.79 23.997,32.374l2.264,-0l0,-137.647l57.957,0l-0,335.061l-57.957,-0l0,-39.392Zm-48.9,-3.17c13.885,0 25.506,-3.32 34.864,-9.961c9.358,-6.641 14.036,-16.15 14.036,-28.526l0,-75.162c0,-11.47 -4.678,-20.677 -14.036,-27.62c-9.358,-6.942 -20.979,-10.414 -34.864,-10.414c-15.093,0 -27.243,5.056 -36.45,15.169c-9.206,10.112 -13.809,23.62 -13.809,40.524l-0,40.75c-0,16.904 4.603,30.337 13.809,40.298c9.207,9.961 21.357,14.942 36.45,14.942Z" style="fill-rule:nonzero;"/></g></g></svg>