<?xml version="1.0" encoding="UTF-8" standalone="no"?><!DOCTYPE svg PUBLIC "-//W3C//DTD SVG 1.1//EN" "http://www.w3.org/Graphics/SVG/1.1/DTD/svg11.dtd"><svg width="100%" height="100%" viewBox="0 0 3949 1050" version="1.1" xmlns="http://www.w3.org/2000/svg" xmlns:xlink="http://www.w3.org/1999/xlink" xml:space="preserve" xmlns:serif="http://www.serif.com/" style="fill-rule:evenodd;clip-rule:evenodd;stroke-linejoin:round;stroke-miterlimit:2;"><rect id="Artboard1" x="0" y="0" width="3948.47" height="1049.66" style="fill:none;"/><clipPath id="_clip1"><rect x="0" y="0" width="3948.47" height="1049.66"/></clipPath><g clip-path="url(#_clip1)"><g><path d="M1258.57,419.422c32.402,0 60.378,5.595 83.927,16.785c23.55,11.191 41.588,27.141 54.114,47.851c12.527,20.711 18.79,45.262 18.79,73.656c-0,12.693 -1.169,25.052 -3.508,37.078c-6.012,35.074 -18.956,65.722 -38.831,91.944c-19.876,26.221 -45.012,46.514 -75.409,60.878c-30.398,14.363 -64.136,21.545 -101.214,21.545l-122.257,0l62.131,-349.737l122.257,0Zm-54.114,292.617c36.744,-0 66.891,-10.355 90.441,-31.066c23.549,-20.71 38.665,-49.437 45.345,-86.181c1.671,-11.024 2.506,-20.544 2.506,-28.56c-0,-28.06 -8.268,-49.772 -24.803,-65.138c-16.534,-15.366 -40.669,-23.048 -72.402,-23.048l-49.104,-0l-41.086,233.993l49.103,-0Z" style="fill-rule:nonzero;"/><path d="M1524.12,458.504c-11.023,0 -19.875,-3.173 -26.556,-9.52c-6.681,-6.346 -10.021,-14.363 -10.021,-24.05c-0,-13.362 5.094,-24.803 15.282,-34.323c10.188,-9.52 22.13,-14.28 35.826,-14.28c10.689,0 19.374,3.174 26.055,9.52c6.68,6.347 10.021,14.364 10.021,24.051c-0,13.361 -5.011,24.802 -15.032,34.322c-10.021,9.52 -21.879,14.28 -35.575,14.28Zm29.061,33.07l-49.103,277.585l-70.649,0l49.103,-277.585l70.649,0Z" style="fill-rule:nonzero;"/><path d="M1681.46,773.669c-20.377,-0 -38.832,-3.424 -55.367,-10.272c-16.535,-6.848 -29.562,-16.368 -39.082,-28.56c-9.521,-12.192 -14.281,-26.139 -14.281,-41.838c0,-2.339 0.334,-6.18 1.003,-11.525l68.143,0c-1.002,11.692 2.505,21.128 10.522,28.31c8.017,7.182 19.375,10.773 34.072,10.773c13.362,-0 24.468,-2.422 33.32,-7.266c8.852,-4.843 13.278,-11.941 13.278,-21.294c0,-8.351 -4.092,-15.032 -12.275,-20.043c-8.184,-5.01 -21.128,-10.689 -38.832,-17.036c-17.704,-6.346 -32.402,-12.526 -44.093,-18.539c-11.692,-6.012 -21.713,-14.363 -30.064,-25.052c-8.351,-10.69 -12.526,-24.218 -12.526,-40.586c-0,-16.368 4.76,-30.898 14.28,-43.592c9.52,-12.693 22.798,-22.547 39.834,-29.562c17.036,-7.015 36.577,-10.522 58.624,-10.522c21.044,-0 39.583,3.507 55.617,10.522c16.034,7.015 28.477,16.785 37.329,29.312c8.852,12.526 13.278,26.806 13.278,42.84c-0,4.008 -0.168,7.015 -0.502,9.019l-65.137,-0c1.002,-11.691 -2.338,-21.044 -10.021,-28.059c-7.683,-7.015 -18.873,-10.522 -33.571,-10.522c-12.025,-0 -21.879,2.588 -29.562,7.766c-7.683,5.178 -11.524,12.109 -11.524,20.794c-0,8.685 4.342,15.783 13.027,21.295c8.685,5.511 22.047,11.607 40.085,18.288c18.038,7.015 32.485,13.445 43.341,19.291c10.856,5.846 20.293,13.862 28.31,24.051c8.017,10.188 12.025,22.965 12.025,38.33c-0,17.036 -5.178,31.901 -15.533,44.594c-10.355,12.694 -24.552,22.381 -42.59,29.062c-18.038,6.68 -38.414,10.021 -61.128,10.021Z" style="fill-rule:nonzero;"/><path d="M1852.82,630.367c5.01,-28.728 15.199,-53.864 30.564,-75.409c15.366,-21.546 34.49,-38.248 57.371,-50.106c22.882,-11.858 47.684,-17.787 74.407,-17.787c34.406,-0 61.379,8.518 80.921,25.554c19.541,17.035 30.48,41.253 32.819,72.653l-75.66,-0c-2.004,-12.026 -7.182,-21.462 -15.532,-28.31c-8.351,-6.848 -19.542,-10.272 -33.571,-10.272c-20.042,0 -37.162,7.266 -51.358,21.796c-14.197,14.531 -23.634,35.158 -28.31,61.881c-1.67,9.353 -2.505,17.37 -2.505,24.05c-0,19.041 4.676,33.655 14.029,43.843c9.353,10.188 22.381,15.282 39.083,15.282c28.059,0 48.769,-12.693 62.13,-38.08l75.66,-0c-13.028,30.063 -32.485,53.947 -58.373,71.651c-25.888,17.704 -55.701,26.556 -89.439,26.556c-35.074,-0 -63.049,-9.938 -83.927,-29.813c-20.877,-19.875 -31.316,-46.849 -31.316,-80.921c0,-10.355 1.003,-21.211 3.007,-32.568Z" style="fill-rule:nonzero;"/><path d="M2271.7,773.669c-23.717,-0 -44.678,-4.844 -62.883,-14.531c-18.205,-9.687 -32.318,-23.382 -42.339,-41.086c-10.021,-17.704 -15.032,-38.081 -15.032,-61.129c0,-31.4 7.433,-60.044 22.297,-85.931c14.865,-25.888 35.241,-46.348 61.129,-61.38c25.888,-15.032 54.699,-22.547 86.432,-22.547c23.717,-0 44.845,4.927 63.384,14.781c18.539,9.854 32.903,23.633 43.091,41.337c10.188,17.704 15.282,38.08 15.282,61.129c-0,31.733 -7.516,60.461 -22.548,86.181c-15.031,25.721 -35.658,46.014 -61.88,60.879c-26.222,14.864 -55.2,22.297 -86.933,22.297Zm9.52,-60.127c16.702,0 31.9,-4.844 45.596,-14.531c13.695,-9.687 24.385,-22.547 32.068,-38.581c7.682,-16.034 11.524,-32.903 11.524,-50.607c-0,-20.042 -5.595,-35.491 -16.786,-46.347c-11.19,-10.857 -25.303,-16.285 -42.339,-16.285c-17.036,0 -32.151,4.844 -45.345,14.531c-13.195,9.687 -23.467,22.631 -30.815,38.832c-7.349,16.201 -11.024,33.32 -11.024,51.358c0,19.708 5.262,34.907 15.784,45.596c10.522,10.689 24.301,16.034 41.337,16.034Z" style="fill-rule:nonzero;"/><path d="M2578.35,540.678c12.025,-16.702 26.055,-29.73 42.089,-39.083c16.034,-9.353 33.404,-14.029 52.11,-14.029l-13.028,73.655l-18.539,-0c-20.71,-0 -37.329,4.509 -49.855,13.528c-12.526,9.019 -21.629,24.385 -27.308,46.098l-26.054,148.312l-70.649,0l49.103,-277.585l70.649,0l-8.518,49.104Z" style="fill-rule:nonzero;"/><path d="M2676.55,629.365c5.011,-28.06 14.948,-52.945 29.813,-74.658c14.865,-21.712 33.07,-38.414 54.615,-50.105c21.545,-11.692 44.177,-17.537 67.893,-17.537c18.038,-0 34.573,3.925 49.605,11.774c15.031,7.85 26.222,18.289 33.57,31.316l23.55,-131.777l70.649,-0l-65.638,370.781l-70.649,0l7.516,-41.086c-11.024,13.695 -25.137,24.718 -42.34,33.069c-17.203,8.351 -36.159,12.527 -56.87,12.527c-20.376,-0 -38.497,-4.593 -54.364,-13.779c-15.867,-9.186 -28.226,-22.214 -37.078,-39.083c-8.852,-16.869 -13.278,-36.493 -13.278,-58.874c-0,-10.355 1.002,-21.211 3.006,-32.568Zm217.96,1.002c1.336,-8.685 2.004,-15.032 2.004,-19.04c-0,-19.709 -5.762,-35.074 -17.287,-46.098c-11.524,-11.023 -25.971,-16.534 -43.341,-16.534c-13.028,-0 -25.637,3.173 -37.83,9.52c-12.192,6.346 -22.798,15.616 -31.817,27.808c-9.019,12.193 -15.032,26.64 -18.038,43.342c-1.002,6.346 -1.503,12.359 -1.503,18.038c-0,20.042 5.679,35.825 17.036,47.349c11.357,11.525 25.721,17.287 43.091,17.287c13.027,-0 25.721,-3.257 38.08,-9.771c12.359,-6.513 22.965,-15.95 31.817,-28.309c8.852,-12.36 14.781,-26.89 17.788,-43.592Z" style="fill-rule:nonzero;"/><path d="M3121.99,532.16c11.023,-13.362 25.22,-24.218 42.59,-32.569c17.37,-8.351 36.243,-12.526 56.619,-12.526c20.71,-0 38.999,4.426 54.866,13.278c15.867,8.852 28.142,21.629 36.827,38.33c8.685,16.702 13.028,36.243 13.028,58.624c-0,10.355 -1.002,21.044 -3.006,32.068c-5.011,28.393 -15.032,53.529 -30.064,75.409c-15.032,21.879 -33.237,38.831 -54.615,50.857c-21.378,12.025 -43.759,18.038 -67.142,18.038c-20.71,-0 -38.247,-4.092 -52.61,-12.276c-14.364,-8.184 -24.886,-18.79 -31.567,-31.817l-7.015,39.583l-70.649,0l65.639,-370.781l70.649,-0l-23.55,133.782Zm129.272,97.205c1.003,-6.681 1.504,-12.694 1.504,-18.038c-0,-19.709 -5.679,-35.074 -17.036,-46.098c-11.358,-11.023 -25.888,-16.534 -43.592,-16.534c-12.694,-0 -25.22,3.256 -37.579,9.77c-12.36,6.514 -23.049,15.95 -32.068,28.31c-9.019,12.359 -15.032,26.89 -18.038,43.592c-1.336,8.685 -2.004,15.031 -2.004,19.04c-0,19.708 5.762,35.074 17.286,46.097c11.525,11.023 25.972,16.535 43.342,16.535c13.027,-0 25.72,-3.341 38.08,-10.021c12.359,-6.681 23.048,-16.201 32.067,-28.56c9.019,-12.36 15.032,-27.058 18.038,-44.093Z" style="fill-rule:nonzero;"/><path d="M3473.23,773.669c-23.716,-0 -44.677,-4.844 -62.882,-14.531c-18.205,-9.687 -32.318,-23.382 -42.339,-41.086c-10.022,-17.704 -15.032,-38.081 -15.032,-61.129c-0,-31.4 7.432,-60.044 22.297,-85.931c14.865,-25.888 35.241,-46.348 61.129,-61.38c25.888,-15.032 54.698,-22.547 86.432,-22.547c23.717,-0 44.844,4.927 63.384,14.781c18.539,9.854 32.902,23.633 43.09,41.337c10.188,17.704 15.283,38.08 15.283,61.129c-0,31.733 -7.516,60.461 -22.548,86.181c-15.032,25.721 -35.658,46.014 -61.88,60.879c-26.222,14.864 -55.2,22.297 -86.934,22.297Zm9.52,-60.127c16.702,0 31.901,-4.844 45.597,-14.531c13.695,-9.687 24.384,-22.547 32.067,-38.581c7.683,-16.034 11.524,-32.903 11.524,-50.607c0,-20.042 -5.595,-35.491 -16.785,-46.347c-11.19,-10.857 -25.303,-16.285 -42.339,-16.285c-17.036,0 -32.151,4.844 -45.346,14.531c-13.194,9.687 -23.466,22.631 -30.815,38.832c-7.349,16.201 -11.023,33.32 -11.023,51.358c0,19.708 5.261,34.907 15.783,45.596c10.522,10.689 24.302,16.034 41.337,16.034Z" style="fill-rule:nonzero;"/><path d="M3833.49,629.866l67.642,139.293l-79.167,0l-41.587,-85.68l-66.14,85.68l-75.158,0l115.243,-139.293l-67.142,-138.292l79.167,0l41.588,85.681l66.139,-85.681l75.159,0l-115.744,138.292Z" style="fill-rule:nonzero;"/></g><path d="M952.194,0.172l-186.177,1049.66l-765.254,-568.804l663.072,242.645l288.359,-723.497Z"/></g></svg>