<?xml version="1.0" encoding="UTF-8" standalone="no"?>
<!DOCTYPE svg PUBLIC "-//W3C//DTD SVG 1.1//EN" "http://www.w3.org/Graphics/SVG/1.1/DTD/svg11.dtd">
<svg width="100%" height="100%" viewBox="0 0 912 273" version="1.1" xmlns="http://www.w3.org/2000/svg" xmlns:xlink="http://www.w3.org/1999/xlink" xml:space="preserve" xmlns:serif="http://www.serif.com/" style="fill-rule:evenodd;clip-rule:evenodd;stroke-linecap:round;stroke-linejoin:round;">
    <g id="Artboard1" transform="matrix(0.988267,0,0,0.94702,-311.126,-358.21)">
        <rect x="314.82" y="378.249" width="921.918" height="288.183" style="fill:none;"/>
        <g id="sex-cube" serif:id="sex cube" transform="matrix(13.6957,0,0,14.2922,438.851,522.804)">
            <g transform="matrix(1,0,0,1,-12,-12)">
                <path d="M20,7L12,3L4,7M20,7L12,11M20,7L20,17L12,21M12,11L4,7M12,11L12,21M4,7L4,17L12,21" style="fill:none;fill-rule:nonzero;stroke:rgb(0,54,141);stroke-width:2px;"/>
            </g>
        </g>
        <g transform="matrix(0.551596,0,0,0.57562,350.631,219.523)">
            <g transform="matrix(383.691,0,0,383.691,431.798,663.088)">
                <rect x="0.068" y="-0.71" width="0.164" height="0.71" style="fill:rgb(0,54,141);fill-rule:nonzero;"/>
            </g>
            <g transform="matrix(383.691,0,0,383.691,546.905,663.088)">
                <path d="M0.027,-0.362C0.027,-0.405 0.035,-0.448 0.051,-0.49C0.067,-0.531 0.09,-0.569 0.121,-0.603C0.152,-0.637 0.189,-0.664 0.233,-0.685C0.277,-0.705 0.327,-0.715 0.383,-0.715C0.45,-0.715 0.507,-0.701 0.557,-0.672C0.606,-0.643 0.642,-0.606 0.666,-0.56L0.54,-0.472C0.529,-0.497 0.515,-0.517 0.498,-0.531C0.48,-0.545 0.461,-0.555 0.44,-0.561C0.419,-0.566 0.398,-0.569 0.379,-0.569C0.348,-0.569 0.32,-0.563 0.297,-0.551C0.274,-0.538 0.254,-0.522 0.239,-0.501C0.224,-0.48 0.212,-0.457 0.205,-0.432C0.198,-0.407 0.194,-0.381 0.194,-0.356C0.194,-0.328 0.198,-0.301 0.207,-0.275C0.216,-0.249 0.228,-0.226 0.245,-0.206C0.261,-0.186 0.281,-0.17 0.304,-0.159C0.327,-0.147 0.353,-0.141 0.381,-0.141C0.401,-0.141 0.421,-0.144 0.442,-0.151C0.463,-0.158 0.482,-0.168 0.5,-0.183C0.517,-0.197 0.531,-0.216 0.54,-0.239L0.674,-0.16C0.66,-0.125 0.637,-0.096 0.605,-0.071C0.573,-0.046 0.537,-0.028 0.497,-0.015C0.456,-0.002 0.416,0.005 0.377,0.005C0.326,0.005 0.279,-0.006 0.235,-0.027C0.193,-0.048 0.156,-0.076 0.125,-0.111C0.094,-0.146 0.07,-0.185 0.053,-0.229C0.035,-0.272 0.027,-0.317 0.027,-0.362Z" style="fill:rgb(0,54,141);fill-rule:nonzero;"/>
            </g>
            <g transform="matrix(383.691,0,0,383.691,810.885,663.088)">
                <path d="M0.567,-0.144L0.567,-0L0.068,-0L0.068,-0.71L0.558,-0.71L0.558,-0.566L0.232,-0.566L0.232,-0.428L0.512,-0.428L0.512,-0.295L0.232,-0.295L0.232,-0.144L0.567,-0.144Z" style="fill:rgb(0,54,141);fill-rule:nonzero;"/>
            </g>
            <g transform="matrix(383.691,0,0,383.691,1040.72,663.088)">
                <path d="M0.171,-0.71L0.338,-0.192L0.503,-0.71L0.676,-0.71L0.418,-0L0.257,-0L-0.003,-0.71L0.171,-0.71Z" style="fill:rgb(0,54,141);fill-rule:nonzero;"/>
            </g>
            <g transform="matrix(383.691,0,0,383.691,1299.32,663.088)">
                <path d="M0.628,-0L0.628,-0.423L0.475,-0.115L0.385,-0.115L0.232,-0.423L0.232,-0L0.068,-0L0.068,-0.71L0.246,-0.71L0.43,-0.339L0.615,-0.71L0.792,-0.71L0.792,-0L0.628,-0Z" style="fill:rgb(0,54,141);fill-rule:nonzero;"/>
            </g>
        </g>
    </g>
</svg>
