<?xml version="1.0" encoding="UTF-8" standalone="no"?><!DOCTYPE svg PUBLIC "-//W3C//DTD SVG 1.1//EN" "http://www.w3.org/Graphics/SVG/1.1/DTD/svg11.dtd"><svg width="100%" height="100%" viewBox="0 0 2426 362" version="1.1" xmlns="http://www.w3.org/2000/svg" xmlns:xlink="http://www.w3.org/1999/xlink" xml:space="preserve" xmlns:serif="http://www.serif.com/" style="fill-rule:evenodd;clip-rule:evenodd;stroke-linejoin:round;stroke-miterlimit:2;"><rect id="Artboard1" x="-0" y="0" width="2425.9" height="361.063" style="fill:none;"/><path d="M92.332,82.764c9.976,0 18.357,-8.38 18.357,-18.356c-0,-9.976 -8.381,-18.356 -18.357,-18.356c-9.976,-0 -18.356,8.38 -18.356,18.356c-0,9.976 8.38,18.356 18.356,18.356Zm-9.976,129.691c0,2.794 2.394,5.188 5.188,5.188c2.793,-0 5.187,-2.394 5.187,-5.188c0,-2.793 -2.394,-5.187 -5.187,-5.187c-2.794,-0 -5.188,2.394 -5.188,5.187Zm36.713,-106.546c4.389,0 7.582,-3.591 7.582,-7.582c-0,-4.389 -3.592,-7.582 -7.582,-7.582c-4.39,0 -7.582,3.592 -7.582,7.582c-0,3.991 3.192,7.582 7.582,7.582Zm-60.257,69.036c9.976,-0 18.356,-8.38 18.356,-18.357c0,-9.976 -8.38,-18.356 -18.356,-18.356c-9.976,0 -18.356,8.38 -18.356,18.356c0.399,9.977 8.38,18.357 18.356,18.357Zm-26.337,-43.098c4.389,0 7.582,-3.591 7.582,-7.582c-0,-4.389 -3.592,-7.582 -7.582,-7.582c-4.39,0 -7.582,3.592 -7.582,7.582c-0,4.39 3.192,7.582 7.582,7.582Zm-2.794,16.76c0,-2.793 -2.394,-5.187 -5.187,-5.187c-2.793,-0 -5.188,2.394 -5.188,5.187c0,2.794 2.395,5.188 5.188,5.188c2.793,0 5.187,-2.394 5.187,-5.188Zm24.343,-43.097c7.182,0 12.769,-5.587 12.769,-12.77c0,-7.182 -5.587,-12.769 -12.769,-12.769c-7.183,-0 -12.77,5.587 -12.77,12.769c-0,7.183 5.587,12.77 12.77,12.77Zm155.23,-70.233c2.793,0 5.187,-2.394 5.187,-5.187c0,-2.794 -2.394,-5.188 -5.187,-5.188c-2.794,0 -5.188,2.394 -5.188,5.188c0,2.793 2.394,5.187 5.188,5.187Zm-139.668,175.183c0,-12.37 -9.976,-22.347 -22.346,-22.347c-12.371,0 -22.347,9.977 -22.347,22.347c-0,12.371 9.976,22.347 22.347,22.347c12.37,-0 22.346,-9.976 22.346,-22.347Zm223.867,-94.176c9.976,0 18.356,-8.38 18.356,-18.356c0,-9.976 -8.38,-18.356 -18.356,-18.356c-9.976,-0 -18.356,8.38 -18.356,18.356c-0,9.976 7.981,18.356 18.356,18.356Zm-41.102,126.1c0,7.183 5.587,12.77 12.77,12.77c7.183,-0 12.769,-5.587 12.769,-12.77c0,-7.183 -5.586,-12.77 -12.769,-12.77c-7.183,0 -12.77,5.587 -12.77,12.77Zm12.77,-169.995c7.183,-0 12.769,-5.587 12.769,-12.77c0,-7.182 -5.586,-12.769 -12.769,-12.769c-7.183,-0 -12.77,5.587 -12.77,12.769c0,7.183 5.587,12.77 12.77,12.77Zm-28.333,33.121c7.183,0 12.77,-5.587 12.77,-12.77c-0,-7.182 -5.587,-12.769 -12.77,-12.769c-7.183,-0 -12.769,5.587 -12.769,12.769c-0,7.183 5.586,12.77 12.769,12.77Zm45.891,45.093c-0,12.37 9.976,22.346 22.347,22.346c12.37,0 22.346,-9.976 22.346,-22.346c0,-12.371 -9.976,-22.347 -22.346,-22.347c-12.371,-0 -22.347,9.976 -22.347,22.347Zm-12.77,-1.996c0,-2.793 -2.394,-5.187 -5.187,-5.187c-2.794,-0 -5.188,2.394 -5.188,5.187c-0,2.794 2.394,5.188 5.188,5.188c2.793,0 5.187,-2.394 5.187,-5.188Zm-36.712,-103.353c4.389,-0 7.582,-3.592 7.582,-7.582c-0,-3.991 -3.592,-7.582 -7.582,-7.582c-4.39,-0 -7.582,3.591 -7.582,7.582c-0,3.99 3.591,7.582 7.582,7.582Zm23.943,86.593c4.389,0 7.582,-3.591 7.582,-7.582c-0,-4.389 -3.592,-7.582 -7.582,-7.582c-3.991,0 -7.582,3.592 -7.582,7.582c-0,4.39 3.591,7.582 7.582,7.582Zm-157.226,-13.168c0,-7.183 -5.586,-12.77 -12.769,-12.77c-7.183,0 -12.77,5.587 -12.77,12.77c0,7.183 5.587,12.769 12.77,12.769c7.183,0 12.769,-5.586 12.769,-12.769Zm133.283,136.475c-4.39,-0 -7.582,3.591 -7.582,7.582c-0,4.389 3.591,7.582 7.582,7.582c4.389,-0 7.582,-3.592 7.582,-7.582c-0,-3.991 -3.193,-7.582 -7.582,-7.582Zm-25.938,30.726c-12.371,0 -22.347,9.977 -22.347,22.347c-0,12.371 9.976,22.347 22.347,22.347c12.37,-0 22.346,-9.976 22.346,-22.347c0,-12.37 -9.976,-22.347 -22.346,-22.347Zm52.674,-7.582c-9.976,0 -18.356,8.381 -18.356,18.357c-0,9.976 8.38,18.356 18.356,18.356c9.976,0 18.356,-8.38 18.356,-18.356c0,-9.976 -8.38,-18.357 -18.356,-18.357Zm-55.867,-7.98c0,2.793 2.394,5.187 5.188,5.187c2.793,0 5.187,-2.394 5.187,-5.187c0,-2.794 -2.394,-5.188 -5.187,-5.188c-2.794,0.399 -5.188,2.394 -5.188,5.188Zm123.705,-63.05c-2.793,-0 -5.187,2.394 -5.187,5.187c-0,2.794 2.394,5.188 5.187,5.188c2.794,-0 5.188,-2.394 5.188,-5.188c0,-2.793 -2.793,-5.187 -5.188,-5.187Zm-7.981,21.947c-4.389,0 -7.581,3.592 -7.581,7.582c-0,4.39 3.591,7.582 7.581,7.582c4.39,0 7.582,-3.591 7.582,-7.582c0,-4.389 -3.192,-7.582 -7.582,-7.582Zm-120.912,-146.451c9.977,0 18.357,-8.38 18.357,-18.356c-0,-9.976 -8.38,-18.356 -18.357,-18.356c-9.976,-0 -18.356,8.38 -18.356,18.356c0,9.976 8.38,18.356 18.356,18.356Zm94.575,103.354c-9.976,0 -18.356,8.38 -18.356,18.356c-0,9.977 8.38,18.357 18.356,18.357c9.976,-0 18.356,-8.38 18.356,-18.357c-0.399,-9.976 -8.38,-18.356 -18.356,-18.356Zm-234.641,58.66c-9.976,0 -18.356,8.38 -18.356,18.357c-0,9.976 8.38,18.356 18.356,18.356c9.976,-0 18.356,-8.38 18.356,-18.356c0,-9.977 -7.981,-18.357 -18.356,-18.357Zm239.43,10.775c-7.183,-0 -12.77,5.586 -12.77,12.769c0,7.183 5.587,12.77 12.77,12.77c7.183,-0 12.769,-5.587 12.769,-12.77c0,-7.183 -5.586,-12.769 -12.769,-12.769Zm-203.116,-26.338c-4.39,0 -7.582,3.592 -7.582,7.582c-0,4.39 3.591,7.582 7.582,7.582c3.99,0 7.582,-3.591 7.582,-7.582c-0,-4.389 -3.592,-7.582 -7.582,-7.582Zm20.351,26.338c-7.183,-0 -12.769,5.586 -12.769,12.769c-0,7.183 5.586,12.77 12.769,12.77c7.183,-0 12.77,-5.587 12.77,-12.77c-0,-7.183 -5.587,-12.769 -12.77,-12.769Zm3.592,60.256c-4.39,0 -7.582,3.592 -7.582,7.582c-0,3.991 3.591,7.582 7.582,7.582c4.389,0 7.582,-3.591 7.582,-7.582c-0,-3.99 -3.592,-7.582 -7.582,-7.582Zm-31.924,-27.135c-7.183,-0 -12.77,5.586 -12.77,12.769c0,7.183 5.587,12.77 12.77,12.77c7.183,-0 12.769,-5.587 12.769,-12.77c0,-7.183 -5.586,-12.769 -12.769,-12.769Zm51.078,-197.929c-0,2.794 2.394,5.188 5.188,5.188c2.793,-0 5.187,-2.394 5.187,-5.188c0,-2.793 -2.394,-5.187 -5.187,-5.187c-3.193,-0 -5.188,2.394 -5.188,5.187Zm29.131,-38.308c-0,-12.371 -9.977,-22.347 -22.347,-22.347c-12.371,-0 -22.347,9.976 -22.347,22.347c0,12.37 9.976,22.346 22.347,22.346c12.37,0.399 22.347,-9.577 22.347,-22.346Zm-24.342,273.348c-2.794,0 -5.188,2.395 -5.188,5.188c-0,2.793 2.394,5.188 5.188,5.188c2.793,-0 5.187,-2.395 5.187,-5.188c0,-2.793 -2.394,-5.188 -5.187,-5.188Zm10.375,-47.487c-9.976,0 -18.356,8.381 -18.356,18.357c-0,9.976 8.38,18.356 18.356,18.356c9.976,0 18.356,-8.38 18.356,-18.356c0,-9.976 -8.38,-18.357 -18.356,-18.357Z" style="fill-rule:nonzero;"/><g><rect x="413.263" y="101.395" width="25.659" height="158.272" style="fill-rule:nonzero;"/><path d="M639.64,101.395l0,158.272l-30.455,0l-61.151,-99.759l-15.347,-28.057l-0.24,-0l0.959,25.659l0,102.157l-23.501,0l0,-158.272l30.216,0l60.911,99.52l15.587,28.537l0.24,-0l-0.959,-25.899l-0,-102.158l23.74,0Z" style="fill-rule:nonzero;"/><path d="M828.128,101.395l-0,22.063l-54.196,-0l-0,136.209l-25.66,0l0,-136.209l-54.196,-0l0,-22.063l134.052,0Z" style="fill-rule:nonzero;"/><path d="M882.804,259.667l-0,-158.272l114.627,0l-0,22.063l-88.968,-0l-0,45.563l69.544,-0l-0,21.582l-69.544,0l-0,47.002l92.325,0l0,22.062l-117.984,0Z" style="fill-rule:nonzero;"/><path d="M1123.81,101.395c16.946,0 30.415,4.237 40.407,12.71c9.992,8.473 14.988,19.904 14.988,34.292c-0,14.868 -4.996,26.339 -14.988,34.413c-9.992,8.073 -23.461,12.11 -40.407,12.11l-2.398,1.439l-36.691,-0l0,63.308l-25.419,0l-0,-158.272l64.508,0Zm-1.919,73.621c10.392,-0 18.106,-2.118 23.142,-6.355c5.036,-4.237 7.553,-10.751 7.553,-19.544c0,-8.633 -2.517,-15.108 -7.553,-19.425c-5.036,-4.316 -12.75,-6.474 -23.142,-6.474l-37.17,-0l0,51.798l37.17,-0Zm15.108,5.276l51.558,79.375l-29.496,0l-44.124,-69.304l22.062,-10.071Z" style="fill-rule:nonzero;"/><path d="M1298.39,98.997c14.228,0 26.538,2.678 36.93,8.034c10.391,5.355 19.184,13.229 26.378,23.621l-17.266,16.546c-6.075,-9.272 -12.909,-15.947 -20.503,-20.023c-7.594,-4.077 -16.587,-6.116 -26.978,-6.116c-7.674,0 -13.989,1.04 -18.945,3.118c-4.956,2.078 -8.593,4.836 -10.911,8.273c-2.318,3.437 -3.477,7.314 -3.477,11.631c-0,4.956 1.718,9.272 5.156,12.949c3.437,3.677 9.872,6.555 19.304,8.633l32.134,7.195c15.347,3.357 26.219,8.473 32.614,15.347c6.394,6.875 9.592,15.588 9.592,26.139c-0,9.752 -2.638,18.225 -7.914,25.419c-5.276,7.195 -12.59,12.71 -21.942,16.547c-9.353,3.837 -20.344,5.755 -32.973,5.755c-11.191,0 -21.263,-1.438 -30.216,-4.316c-8.953,-2.878 -16.786,-6.795 -23.501,-11.751c-6.715,-4.956 -12.23,-10.631 -16.547,-17.026l17.746,-17.745c3.357,5.595 7.594,10.591 12.71,14.987c5.116,4.397 11.071,7.794 17.865,10.192c6.795,2.398 14.349,3.597 22.662,3.597c7.354,0 13.709,-0.879 19.065,-2.638c5.355,-1.758 9.432,-4.356 12.23,-7.793c2.797,-3.438 4.196,-7.554 4.196,-12.35c0,-4.637 -1.558,-8.713 -4.676,-12.23c-3.117,-3.518 -8.913,-6.235 -17.386,-8.154l-34.772,-7.913c-9.592,-2.079 -17.506,-5.036 -23.741,-8.873c-6.234,-3.837 -10.871,-8.513 -13.908,-14.029c-3.038,-5.515 -4.557,-11.71 -4.557,-18.585c0,-8.953 2.438,-17.066 7.314,-24.34c4.877,-7.274 11.951,-13.11 21.223,-17.506c9.273,-4.396 20.304,-6.595 33.094,-6.595Z" style="fill-rule:nonzero;"/><path d="M1534.12,101.395l-0,22.063l-54.196,-0l-0,136.209l-25.66,0l0,-136.209l-54.196,-0l0,-22.063l134.052,0Z" style="fill-rule:nonzero;"/><path d="M1588.79,259.667l-0,-158.272l114.627,0l-0,22.063l-88.968,-0l-0,45.563l69.544,-0l-0,21.582l-69.544,0l-0,47.002l92.325,0l0,22.062l-117.984,0Z" style="fill-rule:nonzero;"/><path d="M1790.95,237.605l87.29,0l-0,22.062l-112.949,0l-0,-158.272l25.659,0l0,136.21Z" style="fill-rule:nonzero;"/><path d="M1958.57,237.605l87.289,0l0,22.062l-112.949,0l0,-158.272l25.66,0l-0,136.21Z" style="fill-rule:nonzero;"/><path d="M2081.83,259.667l59.712,-158.272l30.695,0l59.712,158.272l-27.099,0l-40.767,-113.188l-7.194,-22.782l-0.719,0l-6.715,22.302l-41.246,113.668l-26.379,0Zm31.894,-41.486l0,-20.863l85.611,-0l-0,20.863l-85.611,-0Z" style="fill-rule:nonzero;"/><path d="M2348.5,101.395c16.947,0 30.416,4.237 40.408,12.71c9.992,8.473 14.987,19.904 14.987,34.292c0,14.868 -4.995,26.339 -14.987,34.413c-9.992,8.073 -23.461,12.11 -40.408,12.11l-2.398,1.439l-36.69,-0l-0,63.308l-25.42,0l0,-158.272l64.508,0Zm-1.918,73.621c10.391,-0 18.105,-2.118 23.141,-6.355c5.036,-4.237 7.554,-10.751 7.554,-19.544c0,-8.633 -2.518,-15.108 -7.554,-19.425c-5.036,-4.316 -12.75,-6.474 -23.141,-6.474l-37.17,-0l-0,51.798l37.17,-0Zm15.108,5.276l51.558,79.375l-29.496,0l-44.125,-69.304l22.063,-10.071Z" style="fill-rule:nonzero;"/></g></svg>