<?xml version="1.0" encoding="UTF-8" standalone="no"?><!DOCTYPE svg PUBLIC "-//W3C//DTD SVG 1.1//EN" "http://www.w3.org/Graphics/SVG/1.1/DTD/svg11.dtd"><svg width="100%" height="100%" viewBox="0 0 3368 816" version="1.1" xmlns="http://www.w3.org/2000/svg" xmlns:xlink="http://www.w3.org/1999/xlink" xml:space="preserve" xmlns:serif="http://www.serif.com/" style="fill-rule:evenodd;clip-rule:evenodd;stroke-linejoin:round;stroke-miterlimit:2;"><g><path d="M1253.67,204.725l-188.074,225.082l-6.673,-15.774l-95.251,115.877l-20.02,-84.33l194.14,-240.855l115.878,0Zm-259.056,0l-0,400.415l-104.351,-0l0,-400.415l104.351,0Zm104.957,132.258l161.379,268.157l-118.304,-0l-121.338,-209.915l78.263,-58.242Z" style="fill:#1f2937;fill-rule:nonzero;"/><path d="M1660.76,204.725l-0,237.215c-0,56.625 -15.066,98.992 -45.199,127.102c-30.132,28.11 -74.723,42.165 -133.774,42.165c-58.647,-0 -103.137,-14.055 -133.472,-42.165c-30.334,-28.11 -45.502,-70.477 -45.502,-127.102l0,-237.215l104.958,0l-0,239.035c-0,28.717 6.168,50.153 18.504,64.309c12.336,14.157 30.84,21.235 55.512,21.235c25.076,-0 43.782,-7.078 56.118,-21.235c12.336,-14.156 18.504,-35.592 18.504,-64.309l0,-239.035l104.351,0Z" style="fill:#1f2937;fill-rule:nonzero;"/><path d="M1741.45,605.14l0,-400.415l194.748,0c49.344,0.404 85.745,9.808 109.203,28.211c23.459,18.403 35.188,44.996 35.188,79.78c0,22.649 -6.673,42.165 -20.02,58.545c-13.347,16.381 -33.773,26.796 -61.276,31.245l0,0.606c30.739,4.045 53.692,14.662 68.859,31.851c15.168,17.19 22.751,37.918 22.751,62.186c0,34.379 -12.134,60.972 -36.401,79.78c-24.268,18.807 -60.669,28.211 -109.204,28.211l-203.848,-0Zm100.711,-73.41l85.543,0c19.009,0 33.166,-3.842 42.468,-11.527c9.303,-7.685 13.954,-18.807 13.954,-33.368c-0,-14.156 -4.651,-24.975 -13.954,-32.458c-9.302,-7.482 -23.459,-11.223 -42.468,-11.223l-85.543,-0l-0,88.576Zm-0,-163.199l75.836,0c37.21,0 55.815,-14.561 55.815,-43.682c0,-29.121 -18.605,-43.681 -55.815,-43.681l-75.836,-0l-0,87.363Z" style="fill:#1f2937;fill-rule:nonzero;"/><path d="M2156.43,605.14l-0,-400.415l194.747,0c49.344,0.404 85.745,9.808 109.204,28.211c23.458,18.403 35.188,44.996 35.188,79.78c-0,22.649 -6.674,42.165 -20.021,58.545c-13.347,16.381 -33.773,26.796 -61.276,31.245l0,0.606c30.739,4.045 53.692,14.662 68.859,31.851c15.168,17.19 22.751,37.918 22.751,62.186c0,34.379 -12.134,60.972 -36.401,79.78c-24.268,18.807 -60.669,28.211 -109.204,28.211l-203.847,-0Zm100.71,-73.41l85.543,0c19.01,0 33.166,-3.842 42.468,-11.527c9.303,-7.685 13.954,-18.807 13.954,-33.368c0,-14.156 -4.651,-24.975 -13.954,-32.458c-9.302,-7.482 -23.458,-11.223 -42.468,-11.223l-85.543,-0l-0,88.576Zm-0,-163.199l75.836,0c37.21,0 55.815,-14.561 55.815,-43.682c0,-29.121 -18.605,-43.681 -55.815,-43.681l-75.836,-0l-0,87.363Z" style="fill:#1f2937;fill-rule:nonzero;"/><path d="M2921.46,204.725l0,237.215c0,56.625 -15.066,98.992 -45.198,127.102c-30.132,28.11 -74.724,42.165 -133.775,42.165c-58.647,-0 -103.137,-14.055 -133.472,-42.165c-30.334,-28.11 -45.501,-70.477 -45.501,-127.102l-0,-237.215l104.957,0l-0,239.035c-0,28.717 6.168,50.153 18.504,64.309c12.336,14.157 30.84,21.235 55.512,21.235c25.076,-0 43.783,-7.078 56.119,-21.235c12.336,-14.156 18.504,-35.592 18.504,-64.309l-0,-239.035l104.35,0Z" style="fill:#1f2937;fill-rule:nonzero;"/><path d="M3193.26,204.725c47.726,0 84.835,11.224 111.327,33.671c26.492,22.448 39.738,52.277 39.738,89.487c0,40.85 -13.145,71.994 -39.435,93.43c-26.289,21.436 -63.297,32.154 -111.024,32.154l-9.707,5.461l-79.476,-0l0,146.212l-102.53,-0l-0,-400.415l191.107,0Zm-14.561,180.187c20.223,-0 35.39,-4.045 45.502,-12.134c10.111,-8.089 15.167,-21.032 15.167,-38.828c-0,-17.392 -5.056,-30.132 -15.167,-38.222c-10.112,-8.089 -25.279,-12.133 -45.502,-12.133l-74.016,-0l0,101.317l74.016,-0Zm61.276,21.84l128.011,198.388l-115.271,-0l-102.53,-175.333l89.79,-23.055Z" style="fill:#1f2937;fill-rule:nonzero;"/></g><clipPath id="_clip1"><rect id="kubbur.svg" x="0" y="0" width="815.932" height="815.932"/></clipPath><g clip-path="url(#_clip1)"><g id="KUBBUR_1"><path id="Background" d="M764.937,203.981l-0.002,407.967l-356.971,203.985l-356.969,-203.983l0.002,-407.967l356.969,-203.984l356.971,203.982Z" style="fill:#1f2937;fill-rule:nonzero;"/><g id="Logo"><path id="Top" d="M407.966,101.991l-270.278,152.988l270.278,152.987l270.277,-152.987l-270.277,-152.988Z" style="fill:#00b079;fill-rule:nonzero;"/><path id="Site" d="M137.688,254.979l0,305.974l270.278,152.987l-132.589,-229.481l132.589,-76.493" style="fill:#059669;fill-rule:nonzero;"/><path id="Inside" d="M544.634,330.024l133.609,230.929l-271.297,152.987l-131.569,-229.481l269.257,-154.435Z" style="fill:#047d57;fill-rule:nonzero;"/><path id="Shadow" d="M544.634,330.024l45.081,77.942l-271.145,152.987l-43.193,-76.494l132.589,-76.493l136.668,-77.942Z" style="fill:#036346;fill-rule:nonzero;"/></g></g></g></svg>