<?xml version="1.0" encoding="UTF-8" standalone="no"?><!DOCTYPE svg PUBLIC "-//W3C//DTD SVG 1.1//EN" "http://www.w3.org/Graphics/SVG/1.1/DTD/svg11.dtd"><svg width="100%" height="100%" viewBox="0 0 7302 1129" version="1.1" xmlns="http://www.w3.org/2000/svg" xmlns:xlink="http://www.w3.org/1999/xlink" xml:space="preserve" xmlns:serif="http://www.serif.com/" style="fill-rule:evenodd;clip-rule:evenodd;stroke-linejoin:round;stroke-miterlimit:2;"><rect id="Artboard1" x="0" y="0" width="7301.89" height="1128.89" style="fill:none;"/><rect x="118.197" y="120.267" width="760.105" height="760.105" style="fill:#047857;"/><rect x="0.856" y="2.961" width="760.105" height="760.105" style="fill:#00143e;"/><g><path d="M1787.67,131.604l-342.381,388.863l-12.471,-12.471l-187.062,212.004l-23.808,-145.115l384.328,-443.281l181.394,0Zm-488.63,0l0,748.25l-156.452,-0l-0,-748.25l156.452,0Zm189.33,258.487l308.369,489.763l-179.126,-0l-249.417,-402.468l120.174,-87.295Z" style="fill:#00143e;fill-rule:nonzero;"/><path d="M2541.59,131.604l-272.09,748.25l-182.528,-0l-273.224,-748.25l165.522,0l157.586,476.159l43.081,147.382l41.947,-146.248l158.719,-477.293l160.987,0Z" style="fill:#00143e;fill-rule:nonzero;"/><path d="M3468.97,131.604l-0,748.25l-140.58,-0l-0,-389.997l6.802,-218.806l-2.267,-0l-207.469,608.803l-128.11,-0l-206.335,-608.803l-2.268,-0l7.936,218.806l0,389.997l-141.714,-0l0,-748.25l226.743,0l134.911,408.136l47.616,168.923l2.268,0l48.749,-167.789l133.778,-409.27l219.94,0Z" style="fill:#00143e;fill-rule:nonzero;"/><path d="M4318.12,891.191c-68.779,-0 -129.055,-15.116 -180.827,-45.349c-51.773,-30.232 -92.02,-74.069 -120.741,-131.51c-28.72,-57.442 -43.081,-126.598 -43.081,-207.469c0,-80.116 15.117,-149.083 45.349,-206.903c30.232,-57.819 72.935,-102.222 128.109,-133.211c55.174,-30.988 119.796,-46.482 193.865,-46.482c80.871,0 146.248,14.927 196.132,44.782c49.883,29.854 89.563,76.147 119.039,138.879l-145.115,62.355c-12.093,-40.058 -32.688,-69.724 -61.787,-88.997c-29.098,-19.273 -64.81,-28.909 -107.136,-28.909c-42.325,-0 -78.981,10.014 -109.97,30.043c-30.988,20.029 -54.796,49.127 -71.423,87.296c-16.628,38.168 -24.942,84.839 -24.942,140.013c0,56.686 7.936,104.49 23.808,143.414c15.872,38.925 39.491,68.023 70.857,87.296c31.366,19.273 70.101,28.91 116.205,28.91c24.942,-0 48.183,-3.023 69.724,-9.07c21.54,-6.046 40.246,-15.116 56.118,-27.209c15.872,-12.093 28.343,-27.587 37.413,-46.482c9.069,-18.895 13.604,-40.814 13.604,-65.755l0,-17.006l-196.132,0l0,-114.505l331.044,0l-0,394.532l-109.97,-0l-11.337,-163.255l27.209,19.273c-16.628,49.884 -45.915,88.241 -87.863,115.072c-41.947,26.831 -94.665,40.247 -158.152,40.247Z" style="fill:#00143e;fill-rule:nonzero;"/><path d="M4814.68,879.854l-0,-566.856l134.912,0l10.203,111.104c15.116,-39.302 37.223,-69.534 66.322,-90.697c29.099,-21.163 65.566,-31.744 109.403,-31.744c12.849,0 24.564,1.134 35.145,3.401c10.582,2.268 19.273,5.291 26.076,9.07l-18.14,130.377c-7.558,-3.024 -16.817,-5.291 -27.776,-6.803c-10.959,-1.511 -25.13,-2.267 -42.514,-2.267c-22.674,-0 -44.593,5.48 -65.755,16.439c-21.163,10.959 -38.546,27.587 -52.151,49.883c-13.604,22.296 -20.407,50.45 -20.407,84.462l0,293.631l-155.318,-0Z" style="fill:#00143e;fill-rule:nonzero;"/><path d="M5540.26,301.661c57.441,0 107.891,11.715 151.35,35.145c43.459,23.43 77.471,57.064 102.034,100.9c24.564,43.837 36.846,96.744 36.846,158.72c0,61.22 -12.282,113.938 -36.846,158.153c-24.563,44.214 -58.575,78.037 -102.034,101.467c-43.459,23.43 -93.909,35.145 -151.35,35.145c-56.686,-0 -106.947,-11.715 -150.784,-35.145c-43.836,-23.43 -78.037,-57.253 -102.6,-101.467c-24.564,-44.215 -36.846,-96.933 -36.846,-158.153c-0,-61.976 12.282,-114.883 36.846,-158.72c24.563,-43.836 58.764,-77.47 102.6,-100.9c43.837,-23.43 94.098,-35.145 150.784,-35.145Zm-0,115.639c-28.721,-0 -53.095,6.613 -73.124,19.84c-20.029,13.226 -35.334,33.066 -45.916,59.519c-10.581,26.454 -15.872,59.709 -15.872,99.767c0,40.058 5.291,73.313 15.872,99.766c10.582,26.454 25.887,46.294 45.916,59.52c20.029,13.227 44.403,19.84 73.124,19.84c27.965,0 51.962,-6.613 71.991,-19.84c20.029,-13.226 35.334,-33.066 45.915,-59.52c10.581,-26.453 15.872,-59.708 15.872,-99.766c-0,-40.058 -5.291,-73.313 -15.872,-99.767c-10.581,-26.453 -25.886,-46.293 -45.915,-59.519c-20.029,-13.227 -44.026,-19.84 -71.991,-19.84Z" style="fill:#00143e;fill-rule:nonzero;"/><path d="M6158.13,891.191c-37.791,-0 -71.802,-6.803 -102.034,-20.407c-30.233,-13.605 -54.23,-35.334 -71.991,-65.188c-17.762,-29.855 -26.642,-68.59 -26.642,-116.206l-0,-376.392l155.318,0l0,338.98c0,43.837 9.07,74.258 27.209,91.263c18.14,17.006 44.215,25.509 78.226,25.509c15.872,-0 31.366,-2.834 46.482,-8.503c15.116,-5.668 28.532,-14.549 40.247,-26.642c11.715,-12.093 20.974,-27.776 27.776,-47.049c6.802,-19.273 10.203,-42.136 10.203,-68.59l0,-304.968l155.319,0l-0,566.856l-138.313,-0l-5.668,-98.633c-18.896,37.79 -44.782,65.566 -77.66,83.328c-32.877,17.761 -72.368,26.642 -118.472,26.642Z" style="fill:#00143e;fill-rule:nonzero;"/><path d="M6661.5,1117.93l0,-804.935l139.447,0l10.203,180.26l-19.273,-20.407c6.802,-33.255 19.462,-62.732 37.979,-88.429c18.518,-25.698 42.137,-45.915 70.857,-60.654c28.721,-14.738 60.843,-22.107 96.366,-22.107c46.104,0 87.295,11.715 123.574,35.145c36.279,23.43 64.811,56.875 85.595,100.334c20.785,43.458 31.177,96.176 31.177,158.152c0,61.976 -10.581,115.072 -31.744,159.287c-21.162,44.214 -50.072,78.037 -86.728,101.467c-36.657,23.43 -78.415,35.145 -125.275,35.145c-49.884,-0 -91.264,-13.983 -124.142,-41.948c-32.877,-27.964 -55.363,-63.109 -67.456,-105.435l14.739,-23.808l-0,397.933l-155.319,-0Zm286.829,-345.782c41.569,0 74.258,-14.927 98.066,-44.781c23.808,-29.855 35.712,-73.503 35.712,-130.944c-0,-57.441 -11.526,-101.089 -34.578,-130.944c-23.052,-29.854 -55.363,-44.781 -96.932,-44.781c-26.454,-0 -49.695,6.991 -69.724,20.973c-20.029,13.983 -35.712,34.012 -47.049,60.087c-11.337,26.075 -17.005,57.63 -17.005,94.665c-0,35.523 5.29,66.7 15.872,93.531c10.581,26.831 25.886,47.238 45.915,61.22c20.029,13.983 43.27,20.974 69.723,20.974Z" style="fill:#00143e;fill-rule:nonzero;"/></g></svg>