<?xml version="1.0" encoding="UTF-8" standalone="no"?><!DOCTYPE svg PUBLIC "-//W3C//DTD SVG 1.1//EN" "http://www.w3.org/Graphics/SVG/1.1/DTD/svg11.dtd"><svg width="100%" height="100%" viewBox="0 0 8550 1129" version="1.1" xmlns="http://www.w3.org/2000/svg" xmlns:xlink="http://www.w3.org/1999/xlink" xml:space="preserve" xmlns:serif="http://www.serif.com/" style="fill-rule:evenodd;clip-rule:evenodd;stroke-linejoin:round;stroke-miterlimit:2;"><rect id="Artboard1" x="-0" y="0" width="8549.13" height="1128.89" style="fill:none;"/><rect x="118.197" y="120.267" width="760.105" height="760.105" style="fill:#047857;"/><rect x="0.856" y="2.961" width="760.105" height="760.105" style="fill:#00143e;"/><g><path d="M1787.67,120.267l-342.381,388.863l-12.471,-12.471l-187.062,212.004l-23.808,-145.115l384.328,-443.281l181.394,0Zm-488.63,0l0,748.25l-156.452,-0l-0,-748.25l156.452,0Zm189.33,258.486l308.369,489.764l-179.126,-0l-249.417,-402.468l120.174,-87.296Z" style="fill:#00143e;fill-rule:nonzero;"/><path d="M2541.59,120.267l-272.09,748.25l-182.528,-0l-273.224,-748.25l165.522,0l157.586,476.159l43.081,147.382l41.947,-146.248l158.719,-477.293l160.987,0Z" style="fill:#00143e;fill-rule:nonzero;"/><path d="M3468.97,120.267l-0,748.25l-140.58,-0l-0,-389.997l6.802,-218.806l-2.267,-0l-207.469,608.803l-128.11,-0l-206.335,-608.803l-2.268,-0l7.936,218.806l0,389.997l-141.714,-0l0,-748.25l226.743,0l134.911,408.136l47.616,168.923l2.268,0l48.749,-167.789l133.778,-409.27l219.94,0Z" style="fill:#00143e;fill-rule:nonzero;"/><path d="M4651.43,662.181c-14.361,48.372 -37.035,88.808 -68.023,121.307c-30.988,32.5 -67.645,56.686 -109.97,72.558c-42.325,15.872 -88.807,23.808 -139.447,23.808c-74.069,-0 -138.123,-15.494 -192.164,-46.482c-54.04,-30.989 -95.609,-75.203 -124.708,-132.645c-29.098,-57.441 -43.648,-126.22 -43.648,-206.335c0,-80.116 14.55,-148.894 43.648,-206.335c29.099,-57.442 70.668,-101.657 124.708,-132.645c54.041,-30.988 117.34,-46.482 189.897,-46.482c51.395,0 97.877,6.991 139.446,20.974c41.57,13.982 76.904,35.523 106.002,64.621c29.099,29.099 50.451,65.189 64.055,108.27l-141.714,60.086c-12.848,-45.348 -32.499,-77.659 -58.953,-96.932c-26.453,-19.273 -60.464,-28.909 -102.034,-28.909c-40.813,-0 -76.525,9.825 -107.135,29.476c-30.611,19.651 -54.23,48.561 -70.857,86.729c-16.628,38.168 -24.942,85.217 -24.942,141.147c0,55.174 7.747,102.034 23.241,140.58c15.494,38.546 38.357,67.645 68.59,87.296c30.232,19.651 67.266,29.476 111.103,29.476c40.814,0 76.148,-10.959 106.002,-32.877c29.855,-21.919 50.828,-55.174 62.921,-99.767l143.982,43.081Z" style="fill:#00143e;fill-rule:nonzero;"/><path d="M5027.82,290.324c57.441,-0 107.891,11.715 151.35,35.145c43.459,23.43 77.47,57.063 102.034,100.9c24.564,43.837 36.846,96.744 36.846,158.72c-0,61.22 -12.282,113.938 -36.846,158.152c-24.564,44.215 -58.575,78.038 -102.034,101.468c-43.459,23.43 -93.909,35.145 -151.35,35.145c-56.686,-0 -106.947,-11.715 -150.784,-35.145c-43.837,-23.43 -78.037,-57.253 -102.601,-101.468c-24.564,-44.214 -36.845,-96.932 -36.845,-158.152c-0,-61.976 12.281,-114.883 36.845,-158.72c24.564,-43.837 58.764,-77.47 102.601,-100.9c43.837,-23.43 94.098,-35.145 150.784,-35.145Zm-0,115.638c-28.721,0 -53.096,6.614 -73.125,19.84c-20.029,13.227 -35.334,33.067 -45.915,59.52c-10.581,26.453 -15.872,59.709 -15.872,99.767c-0,40.058 5.291,73.313 15.872,99.766c10.581,26.454 25.886,46.294 45.915,59.52c20.029,13.227 44.404,19.84 73.125,19.84c27.964,0 51.961,-6.613 71.99,-19.84c20.029,-13.226 35.334,-33.066 45.916,-59.52c10.581,-26.453 15.872,-59.708 15.872,-99.766c-0,-40.058 -5.291,-73.314 -15.872,-99.767c-10.582,-26.453 -25.887,-46.293 -45.916,-59.52c-20.029,-13.226 -44.026,-19.84 -71.99,-19.84Z" style="fill:#00143e;fill-rule:nonzero;"/><path d="M5448.43,868.517l0,-566.856l139.447,0l9.07,170.057l-19.274,-18.14c9.07,-37.034 23.43,-67.455 43.081,-91.263c19.651,-23.808 43.648,-41.759 71.991,-53.852c28.343,-12.093 59.52,-18.139 93.531,-18.139c39.302,-0 74.258,7.558 104.869,22.674c30.61,15.116 54.796,37.979 72.557,68.59c17.762,30.61 26.642,68.967 26.642,115.071l0,371.858l-155.318,-0l-0,-327.643c-0,-48.372 -9.448,-81.816 -28.343,-100.333c-18.895,-18.518 -43.459,-27.776 -73.691,-27.776c-21.163,-0 -41.758,5.101 -61.787,15.305c-20.029,10.203 -36.279,26.642 -48.75,49.316c-12.471,22.674 -18.706,52.907 -18.706,90.697l-0,300.434l-155.319,-0Z" style="fill:#00143e;fill-rule:nonzero;"/><path d="M6150.19,868.517l-0,-566.856l139.446,0l9.07,170.057l-19.273,-18.14c9.069,-37.034 23.43,-67.455 43.081,-91.263c19.651,-23.808 43.647,-41.759 71.99,-53.852c28.343,-12.093 59.52,-18.139 93.531,-18.139c39.302,-0 74.258,7.558 104.869,22.674c30.61,15.116 54.796,37.979 72.557,68.59c17.762,30.61 26.642,68.967 26.642,115.071l0,371.858l-155.318,-0l-0,-327.643c-0,-48.372 -9.448,-81.816 -28.343,-100.333c-18.895,-18.518 -43.459,-27.776 -73.691,-27.776c-21.163,-0 -41.758,5.101 -61.787,15.305c-20.029,10.203 -36.279,26.642 -48.75,49.316c-12.471,22.674 -18.706,52.907 -18.706,90.697l-0,300.434l-155.318,-0Z" style="fill:#00143e;fill-rule:nonzero;"/><path d="M7114.98,879.854c-59.709,-0 -111.671,-11.715 -155.886,-35.145c-44.214,-23.43 -78.415,-57.064 -102.601,-100.901c-24.185,-43.836 -36.278,-96.743 -36.278,-158.719c-0,-61.976 12.093,-114.883 36.278,-158.72c24.186,-43.837 58.009,-77.47 101.468,-100.9c43.459,-23.43 93.153,-35.145 149.083,-35.145c57.441,-0 106.191,11.526 146.248,34.578c40.058,23.052 70.668,54.418 91.831,94.098c21.163,39.68 31.744,84.84 31.744,135.479c-0,15.116 -0.378,29.476 -1.134,43.081c-0.756,13.604 -1.889,25.697 -3.401,36.278l-452.351,0l0,-107.702l384.328,-0l-74.825,27.209c0,-47.616 -10.77,-84.273 -32.31,-109.97c-21.541,-25.698 -51.962,-38.546 -91.264,-38.546c-28.721,-0 -53.473,6.802 -74.258,20.407c-20.785,13.604 -36.468,33.822 -47.049,60.653c-10.581,26.831 -15.872,60.654 -15.872,101.467c-0,40.058 5.857,73.125 17.572,99.2c11.715,26.075 28.343,45.537 49.884,58.386c21.54,12.849 47.427,19.273 77.659,19.273c33.255,0 60.087,-6.424 80.493,-19.273c20.407,-12.849 36.279,-30.61 47.616,-53.284l123.575,47.615c-12.093,29.477 -30.421,54.797 -54.985,75.959c-24.564,21.163 -53.663,37.224 -87.296,48.183c-33.633,10.959 -69.723,16.439 -108.269,16.439Z" style="fill:#00143e;fill-rule:nonzero;"/><path d="M7765.73,290.324c50.639,-0 93.531,7.369 128.676,22.107c35.145,14.739 63.488,34.767 85.028,60.087c21.541,25.32 36.846,53.473 45.916,84.461l-145.115,52.151c-7.559,-34.011 -20.407,-59.709 -38.547,-77.092c-18.139,-17.384 -42.703,-26.076 -73.691,-26.076c-28.721,0 -53.284,6.614 -73.691,19.84c-20.407,13.227 -35.901,33.256 -46.482,60.087c-10.582,26.831 -15.872,60.276 -15.872,100.334c-0,40.057 5.479,73.313 16.439,99.766c10.959,26.453 26.831,46.104 47.616,58.953c20.784,12.849 45.159,19.273 73.124,19.273c22.674,0 41.947,-3.968 57.819,-11.904c15.872,-7.936 28.91,-19.462 39.113,-34.578c10.204,-15.116 17.195,-33.256 20.974,-54.418l140.58,45.348c-8.314,34.012 -23.808,63.866 -46.482,89.563c-22.674,25.698 -51.773,45.727 -87.296,60.087c-35.523,14.36 -76.714,21.541 -123.574,21.541c-58.198,-0 -109.592,-11.715 -154.185,-35.145c-44.593,-23.43 -78.982,-57.064 -103.168,-100.901c-24.186,-43.836 -36.279,-96.743 -36.279,-158.719c0,-61.976 12.093,-114.883 36.279,-158.72c24.186,-43.837 58.197,-77.47 102.034,-100.9c43.837,-23.43 94.098,-35.145 150.784,-35.145Z" style="fill:#00143e;fill-rule:nonzero;"/><path d="M8348.46,128.203l0,555.519c0,27.209 6.991,47.049 20.974,59.519c13.982,12.471 33.066,18.707 57.252,18.707c19.651,-0 36.468,-2.835 50.45,-8.503c13.983,-5.669 26.643,-13.416 37.98,-23.241l24.941,103.168c-18.139,14.36 -40.813,25.697 -68.022,34.011c-27.209,8.314 -55.93,12.471 -86.162,12.471c-37.791,-0 -71.235,-5.669 -100.334,-17.006c-29.098,-11.337 -51.773,-29.476 -68.022,-54.418c-16.25,-24.942 -24.375,-58.197 -24.375,-99.767l-0,-537.379l155.318,-43.081Zm181.394,173.458l-0,115.639l-441.014,-0l0,-115.639l441.014,0Z" style="fill:#00143e;fill-rule:nonzero;"/></g></svg>